# xmcd
#
# Track frame offsets:
#	150
#	14315
#	29087
#	45078
#	59665
#	78451
#	91511
#	110683
#	127263
#	139905
#	152961
#	168257
#
# Disc length: 2417 seconds
#
# Revision: 0
# Processed by: cddbd v1.4PL0 Copyright (c) Steve Scherf et al.
# Submitted via: dBpowerAMP V4.0
#
DISCID=9e096f0c
DTITLE=James Guthrie - In A Kaleidoscope
DYEAR=1900
DGENRE=
TTITLE0=Enchanted Heart Unbridles Mind
TTITLE1=Truck Stop Lady
TTITLE2=Jesse When You Ride
TTITLE3=Don't Want To Be The One
TTITLE4=Bright Sun Shinin' Day
TTITLE5=Another Teardrop
TTITLE6=In A Kaleidoscope
TTITLE7=Si Vours Plait (A Song For Aimee)
TTITLE8=Goodbye '99
TTITLE9=Sweet Alycia
TTITLE10=A Windhorse On The Way
TTITLE11=Ill Never Let You Go
EXTD=
EXTT0=
EXTT1=
EXTT2=
EXTT3=
EXTT4=
EXTT5=
EXTT6=
EXTT7=
EXTT8=
EXTT9=
EXTT10=
EXTT11=
PLAYORDER=
